# xmcd
#
# Track frame offsets: 
#        150
#        18063
#        26030
#        48035
#        63663
#        81023
#        97373
#        115575
#        130440
#        150005
#        163018
#        181698
#        196095
#        214888
#        238810
#        254048
#        278208
#        298733
#
# Disc length: 4282 seconds
#
# Revision: 5
# Processed by: cddbd v1.5.2PL0 Copyright (c) Steve Scherf et al.
# Submitted via: ExactAudioCopy v0.99pb5
#
DISCID=fa10b812
DTITLE=RZA as Bobby Digital - Digital Bullet
DYEAR=2001
DGENRE=Rap
TTITLE0=Show U Love
TTITLE1=Can't Loose (feat. Beretta 9)
TTITLE2=Glocko Pop (feat. Wu-Tang Clan)
TTITLE3=Must Be Bobby
TTITLE4=Brooklyn Babies (feat. Masta Killa)
TTITLE5=Domestic Violence Pt. 2 (feat. Big Gipp)
TTITLE6=Do U (feat. GZA and Prodigal)
TTITLE7=Fools (feat. Killa Sin)
TTITLE8=La Rhumba (feat. Method Man, Killa Sin and Berretta 9)
TTITLE9=Black Window Pt. 2 (feat. ODB)
TTITLE10=Shady (feat. Intrigue)
TTITLE11=Break Bread (feat. Jamie Sommers)
TTITLE12=Bong Bong (feat. Berretta 9 and Mad Cez)
TTITLE13=Throw Your Flag Up (feat. Black Knights)
TTITLE14=Be A Man
TTITLE15=Righteous Way (feat. Jr. Reid)
TTITLE16=Build Strong (feat. Tekitha)
TTITLE17=Sickness
EXTD=YEAR: 2001
EXTT0=
EXTT1=
EXTT2=
EXTT3=
EXTT4=
EXTT5=
EXTT6=
EXTT7=
EXTT8=
EXTT9=
EXTT10=
EXTT11=
EXTT12=
EXTT13=
EXTT14=
EXTT15=
EXTT16=
EXTT17=
PLAYORDER=
